<?xml version="1.0" encoding="utf-8"?>
<!-- Generator: Adobe Illustrator 24.1.1, SVG Export Plug-In . SVG Version: 6.00 Build 0)  -->
<svg version="1.1" id="Calque_1" xmlns="http://www.w3.org/2000/svg" xmlns:xlink="http://www.w3.org/1999/xlink" x="0px" y="0px"
	 viewBox="0 0 482.55 193.89" style="enable-background:new 0 0 482.55 193.89;" xml:space="preserve">
<style type="text/css">
	.st0{fill:#F4A206;}
</style>
<g>
	<path class="st0" d="M473.56,49.95c-0.3-7.46-1.34-14.93-3.15-22.27c-0.45-1.84-0.95-3.66-1.5-5.48c-0.27-0.91-0.56-1.81-0.86-2.72
		c-0.3-0.9-0.61-1.8-0.93-2.7l-0.06-0.17l-0.08-0.23c-0.22-0.61-0.49-1.2-0.8-1.79c0,0,0,0,0,0c-0.21-0.39-0.43-0.76-0.67-1.13
		c-0.06-0.1-0.13-0.2-0.2-0.29c-0.21-0.3-0.42-0.6-0.65-0.88c-0.04-0.06-0.09-0.11-0.13-0.17c-0.27-0.33-0.55-0.64-0.85-0.93
		c-0.08-0.08-0.15-0.15-0.23-0.22c-0.24-0.24-0.49-0.46-0.75-0.68c-0.08-0.06-0.15-0.13-0.23-0.19c-0.32-0.26-0.65-0.5-0.99-0.73
		c-0.07-0.05-0.15-0.09-0.22-0.14c-0.28-0.18-0.57-0.36-0.87-0.52c-0.1-0.05-0.19-0.11-0.29-0.16c-0.36-0.19-0.73-0.37-1.11-0.53
		c-0.04-0.02-0.09-0.03-0.13-0.05c-0.34-0.14-0.69-0.26-1.04-0.38c-0.11-0.03-0.22-0.07-0.32-0.1c-0.36-0.11-0.72-0.2-1.09-0.28
		c-0.04-0.01-0.08-0.02-0.12-0.03c-0.4-0.08-0.81-0.14-1.21-0.19c-0.11-0.01-0.22-0.02-0.33-0.03c-0.34-0.03-0.68-0.05-1.02-0.06
		c-0.08,0-0.17-0.01-0.25-0.01c-0.04,0-0.07,0-0.11,0c-0.11,0-0.22,0.02-0.32,0.02c-0.39,0.01-0.78,0.03-1.18,0.07
		c-0.18,0.02-0.37,0.05-0.55,0.07c-0.35,0.05-0.69,0.11-1.04,0.19c-0.19,0.04-0.38,0.09-0.57,0.14c-0.36,0.09-0.71,0.21-1.07,0.33
		c-0.16,0.06-0.33,0.11-0.49,0.17c-0.51,0.2-1.01,0.42-1.51,0.68c0,0,0,0,0,0c-0.64,0.34-1.25,0.72-1.81,1.14
		c-0.57,0.42-1.1,0.87-1.59,1.36c-0.03,0.03-0.07,0.06-0.1,0.09c-0.03,0.03-0.06,0.07-0.09,0.1c-0.24,0.25-0.47,0.5-0.69,0.76
		c-0.44,0.52-0.84,1.07-1.2,1.64c-0.18,0.29-0.35,0.58-0.51,0.87c-0.69,1.28-1.17,2.66-1.44,4.09c-0.16,0.85-0.26,1.71-0.27,2.58
		c-0.01,0.93,0.07,1.87,0.24,2.8c0.2,1.05,0.51,2.09,0.95,3.1c0.15,0.34,0.31,0.67,0.48,1c0.98,1.86,1.89,3.77,2.72,5.72
		c0.48,1.12,0.92,2.26,1.35,3.4c0.31,0.85,0.62,1.7,0.9,2.55c0.22,0.67,0.44,1.35,0.64,2.03c0.62,2.04,1.15,4.12,1.6,6.22
		c0.6,2.8,1.05,5.64,1.34,8.51c0.07,0.72,0.14,1.44,0.19,2.16s0.1,1.44,0.13,2.17c0.08,1.45,0.12,2.9,0.12,4.35s-0.04,2.9-0.12,4.36
		c-0.04,0.73-0.09,1.45-0.15,2.18c-0.18,2.18-0.45,4.35-0.8,6.51c-0.68,4.15-1.67,8.27-2.98,12.31c-0.25,0.78-0.52,1.57-0.8,2.34
		c-0.28,0.78-0.57,1.55-0.88,2.32c-0.23,0.59-0.5,1.16-0.74,1.74c-1.16,2.75-2.47,5.45-3.92,8.08c-0.84,1.53-1.74,3.04-2.67,4.53
		c-0.3,0.47-0.58,0.96-0.89,1.43c-3.28,4.99-7.12,9.66-11.45,13.85c-2.16,2.1-4.43,4.1-6.8,5.97c-1.03,0.81-2.07,1.6-3.14,2.37
		c-0.35,0.26-0.71,0.51-1.07,0.76c-0.89,0.62-1.8,1.23-2.71,1.82c-0.16,0.11-0.32,0.22-0.48,0.32c-0.61,0.38-1.22,0.76-1.83,1.13
		c-0.04,0.02-0.07,0.04-0.11,0.07c-0.7,0.42-1.41,0.83-2.12,1.23c-1.43,0.8-2.88,1.56-4.36,2.28c-0.74,0.36-1.48,0.71-2.23,1.04
		c-0.97,0.44-1.95,0.86-2.94,1.26c-0.47,0.19-0.95,0.38-1.43,0.56c-0.44,0.17-0.88,0.34-1.33,0.5c0,0,0,0,0,0
		c-1.09,0.4-2.19,0.77-3.3,1.13c-0.2,0.06-0.39,0.13-0.58,0.19c-1.07,0.34-2.14,0.65-3.22,0.95c-0.21,0.06-0.42,0.11-0.63,0.17
		c-1.11,0.3-2.23,0.58-3.36,0.83c-0.07,0.02-0.15,0.03-0.22,0.05c-0.23,0.05-0.47,0.09-0.7,0.14c-0.67,0.14-1.35,0.28-2.03,0.41
		c-0.19,0.04-0.38,0.08-0.57,0.11c-0.18,0.03-0.36,0.07-0.54,0.1c-1.11,0.2-2.23,0.37-3.35,0.52c-0.22,0.03-0.44,0.06-0.67,0.09
		c-1.14,0.15-2.27,0.28-3.42,0.38c-0.13,0.01-0.25,0.02-0.38,0.03c-0.02,0-0.04,0-0.06,0c-0.32,0-0.64,0.05-0.96,0.05
		c-0.11,0-0.48,0.03-0.59,0.03l-2.61,0.19c-0.46-0.06-0.93-0.05-1.37-0.14c-0.45-0.09-0.89-0.19-1.34-0.26
		c-0.18-0.02-0.34-0.07-0.5-0.12c-0.26-0.07-0.52-0.16-0.78-0.23l-0.82-0.25l-0.44-0.13c-0.83-0.28-1.62-0.6-2.37-0.97
		c-1.13-0.55-2.17-1.21-3.13-1.97c-0.96-0.76-1.84-1.61-2.65-2.56c-0.27-0.32-0.53-0.64-0.78-0.98c-0.25-0.34-0.5-0.69-0.74-1.05
		c-0.36-0.54-0.69-1.1-1.01-1.68c-0.45-0.82-0.86-1.7-1.24-2.6c-0.23-0.55-0.45-1.11-0.66-1.69c-0.17-0.48-0.34-0.96-0.49-1.45
		c-0.64-2.07-1.15-4.23-1.55-6.46c-0.14-0.74-0.26-1.49-0.37-2.24c-0.29-1.91-0.51-3.86-0.68-5.84c-0.02-0.18-0.03-0.36-0.05-0.54
		c-0.26-3.05-0.41-6.16-0.51-9.27c-0.07-2.14-0.1-4.28-0.13-6.44c-0.02-2.16-0.03-4.33-0.03-6.5c0-2.18,0.01-4.36,0.01-6.56
		c0-2.19,0.01-4.39,0-6.6c-0.03-5.53-0.11-11.08-0.4-16.68c-0.17-3.36-0.41-6.74-0.75-10.15c-0.12-1.21-0.29-2.41-0.49-3.62
		c-0.3-1.8-0.69-3.59-1.17-5.36c-0.32-1.18-0.67-2.35-1.07-3.51c-0.59-1.74-1.26-3.45-2.02-5.13c-1.51-3.35-3.36-6.56-5.52-9.55
		c-2.87-3.99-6.31-7.58-10.16-10.64c-0.96-0.77-1.95-1.5-2.96-2.2c-1.52-1.05-3.09-2.02-4.7-2.91c-0.54-0.3-1.08-0.58-1.63-0.86
		c-1.09-0.56-2.21-1.07-3.34-1.55c0,0,0,0-0.01,0c-0.8-0.34-1.61-0.66-2.42-0.96c-0.18-0.07-0.35-0.13-0.53-0.2
		c-0.8-0.29-1.6-0.56-2.41-0.81c-0.13-0.04-0.26-0.07-0.39-0.11c-0.74-0.22-1.49-0.43-2.24-0.62c-0.15-0.04-0.3-0.08-0.45-0.12
		c-0.82-0.2-1.65-0.38-2.47-0.55c-0.18-0.04-0.36-0.07-0.53-0.1c-0.8-0.15-1.6-0.29-2.41-0.41c-0.06-0.01-0.12-0.02-0.18-0.03
		c-0.85-0.12-1.7-0.22-2.55-0.3c-0.19-0.02-0.38-0.04-0.57-0.05c-0.84-0.08-1.69-0.14-2.53-0.18c-0.1,0-0.2-0.01-0.3-0.01
		c-0.78-0.03-1.57-0.05-2.35-0.05c-0.11,0-0.21-0.01-0.32-0.01c-0.06,0-0.12,0-0.18,0c-0.87,0-1.73,0.02-2.6,0.06
		c-0.17,0.01-0.34,0.02-0.51,0.03c-0.89,0.05-1.79,0.11-2.67,0.19c-3.26,0.29-6.48,0.86-9.63,1.65c-1.05,0.26-2.09,0.55-3.12,0.86
		c-0.44,0.13-0.87,0.26-1.31,0.4c-0.44,0.13-0.86,0.27-1.29,0.41c-1.67,0.56-3.3,1.22-4.94,1.85c-0.16,0.06-0.31,0.12-0.47,0.18
		c-0.17,0.08-0.34,0.15-0.51,0.23c-1.44,0.66-2.9,1.3-4.31,2.02c-0.53,0.26-1.05,0.54-1.56,0.83c-2.08,1.11-4.11,2.29-6.09,3.54
		c-2.96,1.88-5.8,3.91-8.52,6.11c-0.68,0.55-1.35,1.11-2.02,1.68c-2,1.71-3.94,3.51-5.82,5.4v0l-1.25,1.25l-1.17,1.32l-2.33,2.66
		c-0.42,0.51-0.81,1.04-1.22,1.56c-0.31,0.41-0.63,0.81-0.95,1.22l-0.54,0.7l-0.54,0.7c-0.35,0.47-0.67,0.97-1,1.45l-1.98,2.91
		c-0.62,0.99-1.21,2-1.82,3.01l-0.9,1.51l-0.82,1.55l-0.81,1.55l-0.81,1.55c-1,2.1-1.96,4.22-2.84,6.37
		c-0.88,2.15-1.7,4.32-2.43,6.51c-0.72,2.2-1.39,4.4-2,6.63c-0.61,2.22-1.16,4.46-1.62,6.7c-0.95,4.49-1.67,9.01-2.16,13.55
		c-0.12,1.13-0.24,2.27-0.33,3.4c-0.3,3.4-0.48,6.81-0.55,10.22c-0.02,1.08-0.04,2.15-0.04,3.23c0,0.01,0,0.02,0,0.03
		c0,1.07,0.01,2.14,0.03,3.2c-0.67-0.7-1.35-1.4-2.06-2.09c0,0-0.01-0.01-0.01-0.01c-0.72-0.69-1.46-1.37-2.23-2.03
		c-0.46-0.39-0.92-0.77-1.4-1.15c-1.1-0.87-2.28-1.7-3.53-2.47c-0.38-0.24-0.76-0.47-1.16-0.7c-0.9-0.51-1.86-0.98-2.86-1.4
		c-1-0.42-2.04-0.78-3.13-1.08c-0.55-0.15-1.1-0.29-1.67-0.4c-0.68-0.13-1.37-0.22-2.07-0.28c-0.23-0.02-0.46-0.02-0.69-0.03
		c-0.41-0.02-0.82-0.06-1.23-0.06c-0.08,0-0.15,0.01-0.23,0.01c-0.09,0-0.18,0.01-0.27,0.01c-0.65,0.02-1.31,0.05-1.95,0.13
		c-0.06,0.01-0.12,0.02-0.18,0.02c-0.68,0.08-1.35,0.19-2.01,0.34c0,0,0,0,0,0c-2.81,0.6-5.34,1.73-7.57,3.05l-1.63,1.03l-1.53,1.09
		c-0.49,0.37-0.96,0.76-1.44,1.14c-0.12,0.09-0.24,0.21-0.36,0.31c-0.25,0.21-0.49,0.43-0.74,0.66c-0.12,0.11-0.23,0.22-0.35,0.32
		c-0.48,0.45-0.94,0.91-1.39,1.38c-0.45,0.47-0.87,0.96-1.29,1.46c-0.7,0.84-1.34,1.71-1.95,2.6c-0.11,0.16-0.23,0.32-0.33,0.48
		c-0.42,0.65-0.81,1.3-1.18,1.96c-0.76,1.35-1.43,2.73-2.02,4.13c-0.66,1.55-1.22,3.12-1.7,4.7c-0.38-0.56-0.78-1.12-1.21-1.67
		c-0.07-0.08-0.14-0.17-0.21-0.25c-0.49-0.63-1.04-1.25-1.61-1.86c-0.25-0.27-0.51-0.53-0.78-0.79c-0.53-0.52-1.1-1.02-1.71-1.51
		c-0.3-0.24-0.61-0.48-0.94-0.72c-0.13-0.1-0.25-0.2-0.39-0.3c-0.41-0.28-0.84-0.55-1.28-0.82c-0.49-0.29-1-0.58-1.54-0.84
		c-0.67-0.33-1.37-0.62-2.08-0.88c-0.54-0.19-1.09-0.35-1.65-0.5c-0.56-0.15-1.12-0.28-1.7-0.37l-1.15-0.18
		c-0.38-0.04-0.76-0.05-1.14-0.07c-0.4-0.01-0.81-0.03-1.22-0.04c-0.05,0-0.1,0-0.16,0c-0.3,0-0.6,0.01-0.89,0.04h0
		c-0.36,0.03-0.74,0.06-1.11,0.09c-0.37,0.03-0.74,0.07-1.07,0.13l-1.96,0.37c-2.56,0.6-4.95,1.51-7.14,2.59
		c-2.18,1.09-4.15,2.34-6.01,3.65c-0.91,0.66-1.79,1.34-2.65,2.03c-0.85,0.69-1.68,1.4-2.48,2.11c-0.8,0.71-1.58,1.44-2.34,2.17
		c-0.75,0.73-1.49,1.46-2.2,2.2c-1.07,1.1-2.1,2.2-3.11,3.31c-1.01,1.11-1.99,2.22-2.95,3.34c-0.02,0.03-0.04,0.05-0.07,0.08
		c-0.66,0.77-1.31,1.53-1.95,2.29c-2.51,2.99-4.89,5.96-7.26,8.84c-0.22,0.27-0.44,0.53-0.66,0.8c-0.51,0.62-1.03,1.24-1.54,1.86
		c-1.62,1.95-3.23,3.85-4.85,5.62c-1.17,1.3-2.33,2.49-3.49,3.62c-0.29,0.27-0.58,0.55-0.86,0.81c-0.29,0.26-0.57,0.52-0.85,0.76
		l-0.21,0.19l-0.21,0.19l-0.1,0.07l-0.29,0.21l-0.52,0.38l-0.26,0.19l-0.76,0.58c-0.04,0.03-0.08,0.05-0.11,0.07
		c-0.23,0.15-0.49,0.28-0.72,0.42c-0.37,0.2-0.73,0.42-1.09,0.64c-0.19,0.11-0.38,0.23-0.59,0.32c-0.3,0.13-0.6,0.27-0.89,0.4
		c-0.3,0.13-0.6,0.26-0.89,0.4c-0.28,0.16-0.61,0.25-0.93,0.35l-0.38,0.13l-0.57,0.19l-0.94,0.33c-0.32,0.09-0.66,0.15-0.99,0.22
		c-0.66,0.14-1.3,0.32-1.97,0.44c-0.06,0.01-0.12,0.02-0.18,0.02c-0.28,0.03-0.56,0.07-0.83,0.1c-0.33,0.04-0.65,0.09-0.97,0.13
		c-0.12,0.01-0.23,0.02-0.35,0.04c-0.22,0.03-0.44,0.05-0.66,0.07c-0.14,0.01-0.28,0.01-0.41,0.02c-0.21,0.01-0.41,0.02-0.62,0.02
		c-0.02,0-0.05,0-0.07,0h0l-1,0.04l-0.04,0l-0.52,0.03l-0.53-0.03l-2.12-0.1c-0.18-0.01-0.35-0.01-0.53-0.02l-0.54-0.08l-1.07-0.15
		L57,169.34l-0.93-0.12l-0.23-0.03l-0.3-0.04l-0.53-0.12c-0.28-0.07-0.55-0.13-0.82-0.19c-0.79-0.17-1.58-0.34-2.37-0.55
		c-0.35-0.1-0.71-0.21-1.06-0.33l-2.11-0.65l-1.04-0.42l-1.04-0.42c-0.69-0.28-1.38-0.58-2.07-0.89c-3.42-1.57-6.73-3.54-9.86-5.84
		c-1.25-0.92-2.48-1.89-3.68-2.91c-0.25-0.21-0.53-0.42-0.8-0.63c-0.06-0.04-0.12-0.09-0.18-0.14c-0.35-0.25-0.72-0.48-1.09-0.69
		c-0.11-0.07-0.23-0.13-0.35-0.19c-0.26-0.14-0.53-0.28-0.8-0.4c-0.13-0.06-0.26-0.12-0.38-0.17c-0.29-0.12-0.58-0.23-0.88-0.34
		c-0.1-0.03-0.19-0.07-0.29-0.1c-0.39-0.13-0.78-0.23-1.18-0.32c-0.09-0.02-0.19-0.03-0.28-0.05c-0.31-0.06-0.62-0.12-0.93-0.16
		c-0.14-0.02-0.27-0.03-0.41-0.05c-0.28-0.03-0.57-0.05-0.85-0.06c-0.13-0.01-0.25-0.01-0.38-0.01c-0.06,0-0.12-0.01-0.18-0.01
		c-0.12,0-0.23,0.02-0.35,0.02c-0.34,0.01-0.68,0.03-1.02,0.06c-0.18,0.02-0.36,0.04-0.54,0.07c-0.33,0.05-0.65,0.1-0.98,0.17
		c-0.17,0.04-0.34,0.07-0.51,0.11c-0.37,0.09-0.73,0.21-1.1,0.33c-0.11,0.04-0.23,0.07-0.34,0.11c-0.47,0.17-0.93,0.37-1.37,0.6
		c-0.11,0.06-0.22,0.13-0.34,0.19c-0.33,0.18-0.66,0.36-0.98,0.57c-0.15,0.1-0.3,0.2-0.44,0.3c-0.28,0.19-0.55,0.4-0.81,0.61
		c-0.14,0.12-0.29,0.24-0.43,0.36c-0.27,0.24-0.52,0.49-0.77,0.75c-0.12,0.12-0.23,0.23-0.35,0.36c-0.35,0.39-0.69,0.8-1,1.24
		c-0.55,0.78-1.02,1.6-1.39,2.44s-0.65,1.71-0.85,2.59c-0.19,0.88-0.3,1.77-0.32,2.66c-0.05,2.23,0.43,4.44,1.42,6.45
		c0.79,1.61,1.9,3.08,3.31,4.31c0.35,0.31,0.72,0.6,1.12,0.88l0.17,0.12c0.9,0.64,1.82,1.27,2.75,1.88
		c4.11,2.7,8.49,5.08,13.09,7.07c0.67,0.29,1.34,0.57,2.02,0.84c2.03,0.82,4.1,1.56,6.21,2.2l3.29,0.97
		c0.1,0.02,0.21,0.05,0.31,0.07c1.02,0.24,2.05,0.45,3.08,0.67c2.23,0.54,4.58,0.77,6.88,1.06l0.87,0.1l0.41,0.02l0.47,0.02
		l1.76,0.08l1.76,0.07l0.88,0.03l0.89-0.03l3.55-0.15l0.89-0.05l0.5-0.06l0.4-0.05l0.89-0.12l0.89-0.12
		c2.37-0.24,4.74-0.85,7.08-1.4c1.17-0.32,2.33-0.74,3.48-1.11c0.58-0.2,1.16-0.38,1.73-0.6l1.69-0.74l1.68-0.75
		c0.28-0.13,0.56-0.25,0.84-0.38c0.28-0.13,0.55-0.28,0.82-0.44c1.08-0.61,2.16-1.23,3.22-1.85c1.06-0.64,2.05-1.42,3.06-2.14
		c0.41-0.3,0.82-0.6,1.22-0.91c0.09-0.07,0.18-0.14,0.27-0.21l1.4-1.25l0.71-0.65l0.68-0.62l0.69-0.63l0.59-0.62
		c0.4-0.41,0.78-0.83,1.16-1.24c0.37-0.41,0.74-0.82,1.1-1.24c0.4-0.46,0.77-0.93,1.16-1.39c0.3-0.36,0.61-0.72,0.9-1.08
		c0.17-0.22,0.34-0.43,0.5-0.65c0.22-0.28,0.44-0.56,0.66-0.84c0.25-0.32,0.52-0.65,0.76-0.97c0.17-0.23,0.34-0.46,0.51-0.69
		c0.19-0.26,0.38-0.51,0.57-0.77c0.85-1.14,1.68-2.28,2.47-3.41c1.14-1.61,2.23-3.2,3.32-4.79c0.17-0.25,0.34-0.5,0.51-0.75
		c1.27-1.86,2.52-3.7,3.76-5.52c0.69-1.01,1.38-2.01,2.07-2.99c1.57-2.24,3.15-4.42,4.76-6.5c0.54-0.69,1.08-1.37,1.62-2.04
		c0.54-0.67,1.09-1.32,1.64-1.96c1.66-1.91,3.36-3.65,5.09-5.16c0.29-0.24,0.58-0.48,0.87-0.71c0.58-0.46,1.15-0.9,1.73-1.3
		c0.29-0.2,0.58-0.39,0.86-0.57c0.91-0.55,1.8-1,2.67-1.36c0.23-0.09,0.46-0.19,0.69-0.27c0.27-0.07,0.54-0.15,0.81-0.24
		c0.26-0.07,0.42-0.07,0.63-0.14c0.07-0.03,0.14-0.04,0.2-0.05c0.06-0.01,0.12-0.01,0.18-0.01c0.06,0,0.12,0,0.18-0.01
		c0.04,0,0.09-0.01,0.13-0.02c0.05-0.01,0.1-0.02,0.14-0.02c0.06,0.01,0.11,0.01,0.17,0.01c0.03,0,0.06,0.01,0.09,0.01
		c0.17,0,0.35,0.02,0.52,0.04c0.35,0.05,0.72,0.14,1.12,0.3c0.2,0.08,0.4,0.17,0.62,0.29c0.47,0.23,0.95,0.57,1.44,0.98
		c0.16,0.14,0.33,0.28,0.5,0.44c0.03,0.03,0.06,0.05,0.09,0.07c0.23,0.22,0.46,0.45,0.69,0.7c0.23,0.25,0.46,0.51,0.69,0.78
		c0.69,0.82,1.36,1.74,1.99,2.72c1.27,1.98,2.4,4.22,3.4,6.58c0.34,0.79,0.66,1.59,0.97,2.39c0.61,1.62,1.17,3.28,1.68,4.96
		c0.25,0.84,0.5,1.69,0.72,2.53l0.32,1.26l0.28,1.17l0,0l0.01,0.03c0.06,0.34,0.15,0.66,0.26,0.98c0.01,0.03,0.02,0.06,0.03,0.09
		c0.11,0.3,0.25,0.58,0.4,0.85c0.02,0.04,0.04,0.08,0.07,0.12c0.15,0.26,0.33,0.5,0.52,0.74c0.03,0.04,0.06,0.08,0.1,0.11
		c0.2,0.23,0.41,0.44,0.63,0.63c0.04,0.03,0.07,0.06,0.11,0.09c0.23,0.19,0.48,0.37,0.74,0.52c0.03,0.02,0.06,0.03,0.09,0.05
		c0.28,0.16,0.56,0.29,0.86,0.41c0.01,0,0.02,0.01,0.03,0.01c0.3,0.11,0.61,0.19,0.93,0.25c0.03,0.01,0.05,0.01,0.08,0.02
		c0.31,0.05,0.63,0.08,0.95,0.09c0.03,0,0.06,0.01,0.08,0.01c0.02,0,0.05,0,0.07,0c0.23,0,0.46-0.01,0.69-0.04
		c0.41-0.05,0.8-0.14,1.18-0.27c0.56-0.19,1.09-0.46,1.55-0.8c0.5-0.36,0.93-0.79,1.29-1.27c0.36-0.48,0.65-1.02,0.85-1.6
		c0.08-0.24,0.15-0.48,0.2-0.72c0.02-0.11,0.05-0.23,0.07-0.34c0.08-0.54,0.1-1.1,0.03-1.66c-0.03-0.24-0.07-0.6-0.1-0.96
		c-0.01-0.12-0.02-0.24-0.03-0.35l-0.1-1.33l-0.01-0.1c-0.07-0.96-0.11-1.93-0.14-2.91c-0.03-0.97-0.04-1.95-0.03-2.92
		c0.01-0.97,0.04-1.94,0.09-2.91c0.05-0.97,0.11-1.93,0.2-2.89c0.09-0.96,0.2-1.91,0.33-2.85c0.26-1.89,0.61-3.74,1.05-5.54
		c0.1-0.37,0.21-0.73,0.32-1.1c0.4-1.4,0.84-2.77,1.37-4.07c0.34-0.82,0.7-1.62,1.09-2.38c0.39-0.77,0.82-1.5,1.27-2.2
		c0.11-0.17,0.24-0.34,0.35-0.51c0.59-0.85,1.22-1.64,1.9-2.37c0.27-0.29,0.55-0.57,0.84-0.84c0.31-0.26,0.54-0.53,0.9-0.8
		l0.23-0.18l0.79-0.63l0.85-0.61l0.18-0.13l1.03-0.65c0.34-0.2,0.69-0.39,1.03-0.57c1.03-0.52,2.04-0.89,3.01-1.1
		c0.34-0.07,0.68-0.13,1.01-0.16c0.11-0.01,0.22-0.01,0.33-0.02c0.22-0.02,0.45-0.03,0.67-0.04c0.01,0,0.03,0,0.04,0
		c0.19,0,0.38,0.01,0.57,0.02c0.1,0.01,0.2,0.01,0.31,0.01c0.3,0.03,0.61,0.07,0.91,0.12c0.01,0,0.01,0,0.02,0
		c0.32,0.06,0.65,0.14,0.99,0.24c0.25,0.07,0.5,0.16,0.75,0.25c0.51,0.18,1.02,0.41,1.54,0.67c0.26,0.13,0.52,0.27,0.78,0.41
		c0.35,0.19,0.69,0.4,1.04,0.63c1.04,0.67,2.09,1.46,3.11,2.34c0.67,0.57,1.33,1.18,1.99,1.82c0.65,0.64,1.3,1.31,1.93,2
		c0.1,0.11,0.2,0.23,0.31,0.34c1.21,1.33,2.39,2.74,3.53,4.19c1.22,1.55,2.41,3.16,3.57,4.8c0.58,0.82,1.16,1.65,1.73,2.49
		c0.57,0.84,1.13,1.68,1.69,2.53c0,0,0,0,0,0c0.15,0.22,0.31,0.43,0.48,0.63c0.06,0.07,0.12,0.12,0.18,0.19
		c0.12,0.13,0.25,0.26,0.38,0.37c0.08,0.07,0.16,0.13,0.24,0.19c0.13,0.1,0.26,0.2,0.39,0.29c0.09,0.06,0.18,0.11,0.27,0.17
		c0.14,0.08,0.28,0.16,0.43,0.23c0.09,0.05,0.19,0.09,0.28,0.13c0.16,0.07,0.32,0.12,0.48,0.18c0.09,0.03,0.18,0.06,0.28,0.09
		c0.2,0.05,0.4,0.09,0.6,0.13c0.06,0.01,0.12,0.03,0.19,0.04c0.26,0.03,0.52,0.05,0.78,0.05c0.01,0,0.02,0,0.03,0
		c0.3,0,0.61-0.02,0.92-0.07c0,0,0,0,0,0c0.3-0.05,0.59-0.13,0.88-0.22c0.29-0.09,0.57-0.2,0.83-0.33c0.32-0.16,0.62-0.35,0.9-0.56
		c0.18-0.14,0.36-0.28,0.52-0.43c0.8-0.75,1.37-1.71,1.67-2.77c0.07-0.24,0.12-0.49,0.16-0.74c0.03-0.19,0.05-0.39,0.05-0.59
		c0.02-0.4-0.01-0.8-0.07-1.21l-0.02-0.13l-0.18-1.14l-0.04-0.27l-0.21-1.53c-0.07-0.54-0.13-1.09-0.2-1.64
		c-0.06-0.49-0.12-0.97-0.18-1.46c-0.1-1.04-0.2-2.09-0.29-3.13c-0.09-1.05-0.16-2.1-0.22-3.15c-0.06-1.03-0.12-2.07-0.16-3.11
		c-0.04-1.04-0.07-2.07-0.09-3.11c0-0.04,0-0.08,0-0.12c-0.04-2.1-0.04-4.19,0.01-6.29c0.19-8.42,1.06-16.8,2.8-24.95
		c0.83-4.09,1.98-8.08,3.26-12c1.3-3.92,2.91-7.71,4.67-11.41l1.43-2.71l0.72-1.35l0.79-1.31l0.79-1.31l0.79-1.31l1.72-2.52
		c0.29-0.42,0.56-0.85,0.86-1.25l0.81-1.05l0.12-0.15c0.62-0.8,1.23-1.61,1.86-2.4l0.22-0.25l1.79-2.03l1-1.14l0,0l1.07-1.07
		c5.63-5.7,12.37-10.77,19.51-14.53c0.88-0.51,1.79-0.95,2.7-1.37c0.46-0.21,0.92-0.42,1.37-0.63c0.46-0.21,0.92-0.42,1.37-0.63
		c1.4-0.53,2.79-1.12,4.21-1.6c0.47-0.16,0.95-0.32,1.43-0.45c1.42-0.45,2.86-0.84,4.31-1.19c2.41-0.58,4.84-1.01,7.29-1.22
		c0,0,0.01,0,0.01,0c0.9-0.08,1.79-0.14,2.69-0.18c0.29-0.01,0.58-0.01,0.87-0.02c0.47-0.01,0.93-0.02,1.4-0.02
		c0.16,0,0.32,0,0.48,0c0.31,0,0.61,0.01,0.92,0.02c0.62,0.02,1.23,0.05,1.85,0.09c0.29,0.02,0.57,0.04,0.86,0.06
		c0.78,0.07,1.56,0.15,2.34,0.26c0.1,0.01,0.21,0.02,0.31,0.04c0.87,0.12,1.74,0.28,2.61,0.45c0.25,0.05,0.5,0.11,0.76,0.17
		c0.62,0.14,1.23,0.28,1.84,0.44c0.29,0.08,0.59,0.16,0.88,0.24c0.59,0.17,1.18,0.36,1.77,0.55c0.26,0.09,0.52,0.17,0.78,0.26
		c0.82,0.29,1.64,0.61,2.44,0.95c0.01,0,0.01,0,0.02,0.01c1.99,0.85,3.92,1.85,5.75,2.98c0.61,0.38,1.21,0.77,1.8,1.18
		c0.49,0.34,0.98,0.69,1.46,1.05c0.54,0.41,1.08,0.84,1.6,1.28c0.83,0.69,1.63,1.41,2.4,2.16c0.03,0.03,0.06,0.05,0.08,0.08
		c1.71,1.67,3.28,3.49,4.68,5.44c0.49,0.67,0.94,1.36,1.38,2.06c0.84,1.33,1.61,2.71,2.31,4.13c1.57,3.18,2.75,6.56,3.53,10.06
		c0.38,1.7,0.67,3.42,0.85,5.17c0.42,4.15,0.68,8.43,0.85,12.7c0.11,3.22,0.17,6.47,0.2,9.72c0.01,1.07,0.03,2.14,0.03,3.21
		c0.01,1.08,0,2.18,0,3.26c0,7.62-0.08,15.32,0.16,23.16c0.04,1.12,0.08,2.24,0.13,3.37c0.1,2.25,0.24,4.52,0.43,6.8
		c0.1,1.14,0.21,2.28,0.34,3.43c0.01,0.07,0.02,0.14,0.03,0.22c0.25,2.12,0.57,4.26,0.97,6.41c0.04,0.23,0.09,0.45,0.13,0.68
		c0.44,2.21,0.98,4.43,1.67,6.66c0.24,0.79,0.51,1.58,0.81,2.37c0.29,0.79,0.61,1.58,0.96,2.37c0.16,0.37,0.33,0.73,0.5,1.09
		c0.46,0.97,0.95,1.94,1.51,2.88c0.66,1.13,1.39,2.24,2.19,3.31c0.4,0.54,0.82,1.07,1.26,1.58c0.23,0.25,0.44,0.52,0.66,0.77
		c0.22,0.26,0.45,0.51,0.69,0.75l0.74,0.69l0.76,0.72l0.31,0.29l0.44,0.41l0.82,0.62l1.66,1.22c0.43,0.33,0.9,0.58,1.37,0.84
		c0.13,0.07,0.26,0.14,0.38,0.22c0.59,0.33,1.18,0.68,1.78,0.99c1.23,0.52,2.46,1.1,3.7,1.53l1.88,0.57
		c0.31,0.09,0.63,0.19,0.94,0.28c0.31,0.09,0.63,0.17,0.94,0.22c1.25,0.24,2.51,0.54,3.76,0.7c1.24,0.13,2.48,0.27,3.73,0.38
		c0.1,0,0.19-0.01,0.29-0.01c1.27,0,2.53-0.03,3.8-0.08c0.24-0.01,0.49-0.02,0.73-0.03c1.31-0.06,2.63-0.14,3.94-0.25
		c0,0,0.01,0,0.01,0c0.46-0.04,0.92-0.09,1.38-0.13c0.68-0.07,1.35-0.14,2.03-0.22c0.65-0.08,1.3-0.16,1.95-0.25
		c0.84-0.11,1.68-0.24,2.52-0.37c1.09-0.18,2.17-0.37,3.26-0.59c3.25-0.64,6.47-1.44,9.65-2.4c1.82-0.55,3.62-1.17,5.41-1.82
		c0.79-0.29,1.59-0.57,2.37-0.88c2.8-1.1,5.57-2.3,8.28-3.63c2-0.98,3.98-2.02,5.92-3.13c1.55-0.89,3.07-1.81,4.58-2.77
		c2.25-1.45,4.46-2.98,6.6-4.6c1.43-1.08,2.83-2.2,4.2-3.36c2.05-1.74,4.05-3.55,5.97-5.44c1.28-1.26,2.54-2.55,3.76-3.88
		c1.22-1.32,2.41-2.68,3.57-4.07c1.16-1.39,2.28-2.8,3.36-4.25c1.63-2.17,3.18-4.4,4.64-6.7c0.49-0.77,0.97-1.54,1.43-2.32
		c1.4-2.34,2.72-4.73,3.94-7.18c1.24-2.45,2.38-4.94,3.42-7.48c0.35-0.85,0.68-1.7,1.01-2.55c0.65-1.71,1.26-3.44,1.82-5.19
		c0.84-2.62,1.59-5.28,2.23-7.96c0.43-1.79,0.81-3.59,1.15-5.41c0.34-1.81,0.63-3.64,0.88-5.47c0.25-1.83,0.45-3.67,0.6-5.52
		c0.23-2.77,0.36-5.55,0.39-8.35C473.66,53.67,473.63,51.81,473.56,49.95z"/>
</g>
</svg>
