<?xml version="1.0" encoding="utf-8"?>
<!-- Generator: Adobe Illustrator 24.1.1, SVG Export Plug-In . SVG Version: 6.00 Build 0)  -->
<svg version="1.1" id="Capa_1" xmlns="http://www.w3.org/2000/svg" xmlns:xlink="http://www.w3.org/1999/xlink" x="0px" y="0px"
	 viewBox="0 0 471.2 403" style="enable-background:new 0 0 471.2 403;" xml:space="preserve">
<g>
	<g>
		<path d="M420.2,341H51c-7.5,0-13.5,6-13.5,13.5l0,0c0,7.5,6,13.5,13.5,13.5h369.2c7.5,0,13.5-6,13.5-13.5l0,0
			C433.7,347,427.7,341,420.2,341z"/>
		<path d="M226.1,260.8c2.6,2.6,6.1,4,9.5,4s6.9-1.3,9.5-4l85.8-85.8c5.3-5.3,5.3-13.8,0-19.1s-13.8-5.3-19.1,0l-62.7,62.8V19.8
			c0-7.5-6-13.5-13.5-13.5s-13.5,6-13.5,13.5v198.9l-62.8-62.8c-5.3-5.3-13.8-5.3-19.1,0s-5.3,13.8,0,19.1L226.1,260.8z"/>
	</g>
</g>
</svg>
