<?xml version="1.0" encoding="utf-8"?>
<!-- Generator: Adobe Illustrator 24.1.1, SVG Export Plug-In . SVG Version: 6.00 Build 0)  -->
<svg version="1.1" id="ps_x5F_cc_x5F_app_x5F_RGB.svg"
	 xmlns="http://www.w3.org/2000/svg" xmlns:xlink="http://www.w3.org/1999/xlink" x="0px" y="0px" viewBox="0 0 2500 2438"
	 style="enable-background:new 0 0 2500 2438;" xml:space="preserve">
<path d="M0,0.3v2437.5h2500V0.3H0z M54.2,54.4h2391.7v2329.2H54.2V54.4z"/>
<path d="M0,0.3v23.4h24V0.3H0z M1,1.3h22v21.4H1V1.3z M8.3,13.6l-0.8,3c0,0.1-0.1,0.1-0.1,0.1H5.9c-0.1,0-0.1,0-0.1-0.1l2.8-9.9
	c0.1-0.2,0.1-0.3,0.1-0.8c0-0.1,0-0.1,0.1-0.1h2.1c0.1,0,0.1,0,0.1,0.1l3.2,10.8c0,0.1,0,0.1-0.1,0.1h-1.6c-0.1,0-0.1,0-0.1-0.1
	l-0.8-3L8.3,13.6L8.3,13.6z M11.1,11.9c-0.3-1.1-0.9-3.5-1.2-4.7h0c-0.2,1.2-0.7,3.1-1.2,4.7H11.1z M15.6,6.4c0-0.6,0.4-1,1-1
	c0.6,0,1,0.4,1,1c0,0.7-0.4,1-1,1C16,7.4,15.6,7,15.6,6.4L15.6,6.4z M15.7,8.6c0-0.1,0-0.1,0.1-0.1h1.6c0.1,0,0.1,0,0.1,0.1v7.9
	c0,0.1,0,0.1-0.1,0.1h-1.6c-0.1,0-0.1,0-0.1-0.1L15.7,8.6L15.7,8.6z"/>
<path d="M1827.2,1097.8c-15.6-7.3-35.4-10.4-60.4-10.4c-131.3,0-218.8,101-218.8,268.8c0,191.7,89.6,268.8,206.3,268.8
	c25,0,52.1-3.1,71.9-11.5v-515.6H1827.2z M1360.6,1364.5c0-242.7,156.3-432.3,412.5-432.3c21.9,0,33.3,0,54.2,2.1V663.4
	c0-6.3,5.2-10.4,10.4-10.4h167.7c8.3,0,10.4,3.1,10.4,8.3v952.1c0,28.1,0,63.5,5.2,102.1c0,7.3,0,8.3-6.3,11.5
	c-87.5,41.7-179.2,60.4-266.7,60.4C1522,1787.4,1360.6,1647.8,1360.6,1364.5L1360.6,1364.5z M1005.4,1195.7l291.7,565.6
	c5.2,8.3,2.1,16.7-6.3,16.7h-181.3c-11.5,0-16.7-3.1-21.9-13.5c-66.7-137.5-134.4-280.2-204.2-428.1h-2.1
	c-62.5,139.6-131.3,291.7-197.9,429.2c-5.2,8.3-10.4,11.5-18.8,11.5H491.8c-10.4,0-11.5-8.3-6.3-14.6l285.4-549L495,667.6
	c-6.2-8.3,0-15.6,7.3-15.6h179.2c10.4,0,15.6,2.1,18.8,11.5C765.8,802,832.5,938.4,895,1078h2.1c60.4-137.5,127.1-276,190.6-412.5
	c5.2-8.3,8.3-13.5,18.8-13.5h167.7c8.3,0,11.5,6.3,6.2,15.6L1005.4,1195.7L1005.4,1195.7z"/>
</svg>
