<?xml version="1.0" encoding="utf-8"?>
<!-- Generator: Adobe Illustrator 24.1.1, SVG Export Plug-In . SVG Version: 6.00 Build 0)  -->
<svg version="1.1" id="Calque_1" xmlns="http://www.w3.org/2000/svg" xmlns:xlink="http://www.w3.org/1999/xlink" x="0px" y="0px"
	 viewBox="0 0 512 512" style="enable-background:new 0 0 512 512;" xml:space="preserve">
<path class="animate" d="M-1011.1,1505.3h-2500v-2500h2500V1505.3z M-3442.3,1438.5h2363.5V-927.9h-2363.5V1438.5z"/>
<path class="animate" d="M-1313,858V130.9c0-219.8-335.7-367.1-756-195.7v922.7h248.8V63.3c130.4-43.5,282.6-24.2,282.6,87V858H-1313z
	 M-2561.8-487.5h-270.6l-372,1330.9l207.7,12.1l101.4-374.4h398.6l99,374.4h239.1L-2561.8-487.5z M-2842,271l140.1-558l147.3,558
	H-2842z"/>
<g>
	<g>
		<path class="animate" d="M0,0v512h512V0H0z M482,482H30V30h452V482z"/>
	</g>
</g>
<path class="animate" d="M402.1,340.8v-91.6c0-27.7-51.9-46.3-116.8-24.7v116.3h38.4V240.6c20.1-5.5,43.7-3.1,43.7,11v89.2H402.1z
	 M209.2,171.2h-41.8L109.9,339l32.1,1.5l15.7-47.2h61.6l15.3,47.2h36.9L209.2,171.2z M165.9,266.8l21.6-70.3l22.8,70.3H165.9z"/>
</svg>
