<?xml version="1.0" encoding="utf-8"?>
<!-- Generator: Adobe Illustrator 24.1.1, SVG Export Plug-In . SVG Version: 6.00 Build 0)  -->
<svg version="1.1" id="Capa_1" xmlns="http://www.w3.org/2000/svg" xmlns:xlink="http://www.w3.org/1999/xlink" x="0px" y="0px"
	 viewBox="0 0 512 512" style="enable-background:new 0 0 512 512;" xml:space="preserve">
<g>
	<g>
		<path class="indesign" d="M0,0v512h512V0H0z M482,482H30V30h452V482z"/>
	</g>
</g>
<g>
	<rect x="164.3" y="181.6" class="indesign" width="33.1" height="170.4"/>
	<path class="indesign" d="M280.4,354.4c25.2,0,39-16.2,43.7-24.2c0,0-2.1,23.5,21.1,23.5c3.5,0,8.1-0.6,13.7-1.7h0v-27.4
		c-2.7-0.2-7.4-6.2-7.4-9.6V176.8h-32.2v71.5c-4.2-7.2-17.2-24.2-42.5-24.2c-29.8,0-56.2,25.9-56.2,65
		C220.7,323.6,243.5,354.4,280.4,354.4z M286.9,251.4c19.6,0,31.1,21,32.4,24.5v30c-1.1,3-10.3,21.1-30.5,21.1
		c-21.3,0-34.8-18.9-34.8-37.2C254,273.2,265,251.4,286.9,251.4z"/>
</g>
</svg>
