<?xml version="1.0" encoding="utf-8"?>
<!-- Generator: Adobe Illustrator 24.1.1, SVG Export Plug-In . SVG Version: 6.00 Build 0)  -->
<svg version="1.1" id="Calque_1" xmlns="http://www.w3.org/2000/svg" xmlns:xlink="http://www.w3.org/1999/xlink" x="0px" y="0px"
	 viewBox="0 0 1813.8 1237.8" style="enable-background:new 0 0 1813.8 1237.8;" xml:space="preserve">
<path class="mysql" d="M448,1114h-67.7c-2.4-114.2-9-221.6-19.8-322.3H360l-103,322.3h-51.5L103,791.7h-0.6
	C94.8,888.3,90,995.8,88,1114H26.3c4-143.8,14-278.6,29.9-404.4h83.9l97.6,297.1h0.6l98.2-297.1h80.3
	C434.4,857,444.8,991.8,448,1114 M741.5,815.7c-27.6,149.5-63.9,258.2-109,326c-35.2,52.2-73.7,78.3-115.6,78.3
	c-11.2,0-25-3.4-41.3-10.1v-36.1c8,1.2,17.4,1.8,28.1,1.8c19.6,0,35.3-5.4,47.3-16.2c14.4-13.2,21.5-27.9,21.5-44.3
	c0-11.2-5.6-34.2-16.8-68.9l-74.3-230.7h66.5l53.3,172.5c12,39.2,17,66.5,15,82.1c29.2-77.9,49.5-162.8,61.1-254.6L741.5,815.7
	L741.5,815.7L741.5,815.7z"/>
<path class="mysql" d="M1642.5,1114h-192.3V709.6h64.7v354.6h127.6V1114z M1399.9,1123.8l-74.3-36.7c6.6-5.4,12.9-11.3,18.6-18.1
	c31.6-37.1,47.4-92,47.4-164.7c0-133.8-52.5-200.7-157.5-200.7c-51.5,0-91.7,17-120.4,50.9c-31.6,37.1-47.3,91.8-47.3,164.2
	c0,71.1,14,123.2,41.9,156.3c25.6,30,64.1,45,115.7,45c19.2,0,36.9-2.4,52.9-7.1l96.8,56.3L1399.9,1123.8z M1159.1,1033.1
	c-16.4-26.3-24.6-68.6-24.6-127c0-101.8,30.9-152.8,92.9-152.8c32.4,0,56.1,12.2,71.3,36.5c16.3,26.4,24.6,68.3,24.6,125.8
	c0,102.7-31,154-92.8,154C1198,1069.7,1174.3,1057.5,1159.1,1033.1 M1038,1001.9c0,34.3-12.6,62.4-37.7,84.5
	c-25.2,21.9-58.9,32.9-101.2,32.9c-39.5,0-77.9-12.6-115-37.8l17.4-34.7c31.9,16,60.9,23.9,86.8,23.9c24.4,0,43.4-5.4,57.2-16.1
	c13.8-10.8,22-25.8,22-44.9c0-24-16.8-44.6-47.5-61.8c-28.3-15.6-85-48.1-85-48.1c-30.7-22.4-46.1-46.4-46.1-86
	c0-32.8,11.5-59.2,34.4-79.4c23-20.2,52.6-30.3,89-30.3c37.5,0,71.7,10.1,102.4,30l-15.6,34.7c-26.3-11.2-52.2-16.8-77.8-16.8
	c-20.7,0-36.7,5-47.9,15c-11.2,10-18.1,22.7-18.1,38.4c0,23.9,17.1,44.7,48.7,62.2c28.7,15.6,86.8,48.7,86.8,48.7
	C1022.3,938.8,1038,962.6,1038,1001.9"/>
<path class="mysql" d="M1723.7,574.2c-39.1-1-69.4,2.9-94.8,13.7c-7.3,2.9-19,2.9-20,12.2c4,3.9,4.4,10.3,7.9,15.7
	c5.9,9.8,16.1,22.9,25.4,29.8c10.2,7.8,20.5,15.6,31.3,22.5c19,11.8,40.5,18.6,59.1,30.3c10.8,6.8,21.5,15.6,32.3,23
	c5.3,3.9,8.7,10.3,15.6,12.7v-1.5c-3.5-4.4-4.4-10.8-7.8-15.6l-14.7-14.2c-14.2-19-31.8-35.7-50.8-49.3
	c-15.6-10.8-49.9-25.4-56.2-43.4l-1-1c10.8-1,23.5-4.9,33.7-7.9c16.6-4.4,31.8-3.4,48.8-7.8c7.8-2,15.6-4.4,23.5-6.8V582
	c-8.8-8.8-15.1-20.5-24.4-28.8c-24.9-21.5-52.3-42.5-80.6-60.1c-15.2-9.8-34.7-16.1-50.8-24.4c-5.8-2.9-15.6-4.4-19.1-9.3
	c-8.8-10.8-13.7-24.9-20-37.6c-14.1-26.9-27.8-56.6-40-85c-8.8-19-14.2-38.1-24.9-55.7c-50.4-83-105-133.4-189.1-182.7
	c-18.1-10.3-39.5-14.7-62.5-20l-36.7-1.9c-7.8-3.4-15.7-12.7-22.5-17.1c-27.9-17.6-99.7-55.7-120.2-5.4
	c-13.2,31.8,19.5,63.1,30.8,79.2c8.3,11.2,19.1,23.9,24.9,36.6c3.4,8.3,4.4,17.1,7.8,25.9c7.8,21.5,15.1,45.4,25.4,65.5
	c5.4,10.2,11.2,21,18.1,30.2c3.9,5.4,10.8,7.8,12.2,16.6c-6.8,9.7-7.4,24.4-11.3,36.6c-17.6,55.2-10.7,123.6,14.2,164.2
	c7.8,12.2,26.4,39.1,51.3,28.8c22-8.8,17.1-36.6,23.5-61.1c1.5-5.9,0.5-9.8,3.4-13.6v1c6.8,13.7,13.7,26.8,20,40.5
	c15.2,23.9,41.6,48.8,63.5,65.4c11.7,8.8,21,24,35.6,29.4v-1.5h-1c-3-4.4-7.3-6.3-11.2-9.7c-8.8-8.8-18.6-19.6-25.4-29.3
	c-20.5-27.4-38.6-57.7-54.7-88.9c-7.9-15.2-14.7-31.8-21-46.9c-3-5.8-3-14.7-7.9-17.6c-7.4,10.7-18.1,20-23.4,33.2
	c-9.3,21-10.3,46.9-13.7,73.8l-1.9,0.9c-15.6-3.9-21-20-26.9-33.7c-14.6-34.7-17.1-90.4-4.4-130.5c3.4-10.2,18.1-42.5,12.2-52.2
	c-2.9-9.4-12.7-14.7-18.1-22c-6.3-9.3-13.2-21-17.6-31.3c-11.7-27.3-17.6-57.7-30.2-85c-5.9-12.7-16.1-25.9-24.4-37.7
	c-9.3-13.2-19.6-22.5-26.9-38.1c-2.4-5.4-5.8-14.2-1.9-20c1-3.9,2.9-5.4,6.8-6.4c6.3-5.3,24.4,1.5,30.8,4.4
	c18.1,7.3,33.3,14.2,48.4,24.4c6.8,4.9,14.2,14.2,23,16.6h10.3c15.6,3.4,33.2,0.9,47.9,5.4c25.9,8.3,49.3,20.5,70.4,33.7
	c64,40.6,116.8,98.2,152.4,167.1c5.8,11.2,8.3,21.5,13.7,33.2c10.3,24,23,48.4,33.2,71.8c10.3,23,20,46.4,34.7,65.5
	c7.3,10.3,36.7,15.6,49.9,21c9.7,4.4,24.9,8.3,33.7,13.7c16.6,10.2,33.2,22,48.8,33.3C1697.8,552.2,1722.2,564.4,1723.7,574.2
	 M1225.3,149.6c-6.7-0.1-13.5,0.8-20,2.5v1h0.9c3.9,7.8,10.8,13.2,15.7,20c3.9,7.8,7.4,15.6,11.2,23.4l0.9-1
	c6.9-4.9,10.3-12.7,10.3-24.4c-3-3.5-3.4-6.8-5.9-10.3C1235.6,156,1229.2,153.5,1225.3,149.6"/>
<path class="mysql" d="M1770.2,1113.9h10.1v-49.5h-15.2l-12.4,33.8l-13.5-33.8h-14.6v49.5h9.6v-37.7h0.5l14.1,37.7h7.3l14-37.7
	L1770.2,1113.9L1770.2,1113.9z M1688.7,1113.9h10.7v-41.1h14v-8.4H1674v8.4h14.6L1688.7,1113.9L1688.7,1113.9z"/>
</svg>
