<?xml version="1.0" encoding="utf-8"?>
<!-- Generator: Adobe Illustrator 24.1.1, SVG Export Plug-In . SVG Version: 6.00 Build 0)  -->
<svg version="1.1" id="Calque_1" class="nodejs" xmlns="http://www.w3.org/2000/svg" xmlns:xlink="http://www.w3.org/1999/xlink" x="0px" y="0px"
	 viewBox="0 0 260 303.7" style="enable-background:new 0 0 260 303.7;" xml:space="preserve">
<g>
	<path class="nodejs" d="M260,222c-3.3,9.2-10.5,14.3-18.6,19.1c-32.2,18.9-64.2,38-96,57.5c-10.8,6.6-20.5,6.9-31.1-0.3
		c-9.9-6.7-20.4-12.6-30.6-18.9c-1.5-0.9-2.7-2.1-4.6-3.6c7-3.6,13.3-7,19.7-9.9c1.2-0.5,3.5,0.6,5,1.4c7.4,4.2,14.7,8.5,21.9,13
		c2.9,1.8,5.2,2,8.2,0.2c33.2-19.9,66.4-39.6,99.6-59.3c3.4-2,4.8-4.3,4.8-8.3c-0.1-40-0.1-80,0-120c0-3.7-1.1-6.1-4.4-8.1
		c-33.2-20.1-66.3-40.4-99.4-60.7c-3.3-2-5.7-2.2-9-0.1c-33,20.4-66.1,40.6-99.3,60.8c-3.3,2-4.5,4.2-4.5,8
		c0.1,40.2,0.1,80.3,0,120.5c0,3.6,1.1,5.8,4.3,7.6c7.7,4.4,15.1,9.1,22.8,13.5c2.4,1.4,5,2.7,7.7,3.4c11.8,3.4,19.4-2.4,19.4-14.7
		c0-39.3,0-78.7,0-118c0-7.3,0-7.4,7.1-7.3c16.7,0.2,14.5-2.6,14.5,14.5c0.1,37,0,74,0,111c0,3.8-0.1,7.7-0.9,11.4
		c-4,19.9-20.5,28.8-42.1,24.4c-6.1-1.2-11.8-4.4-17.4-7.3c-6.3-3.3-12.2-7.6-18.5-10.9C10.2,236.7,3.3,231.2,0,222
		c0-46.3,0-92.7,0-139c2.7-8.9,8.8-14.4,16.7-18.8c13.6-7.7,26.9-16.1,40.4-24C80,26.7,103,13.4,126,0c2.7,0,5.3,0,8,0
		c6,3.2,12.1,6.2,17.9,9.6c30.3,18.1,60.5,36.4,91,54.3c7.9,4.7,14.4,10,17.1,19.1C260,129.4,260,175.7,260,222z"/>
	<path class="nodejs" d="M160.6,91.1c10.6,2.3,21.4,3.7,31.5,7.2c11.9,4.1,18.5,13.6,20.1,26.3c0.5,4-0.7,6.1-5,5.9
		c-1.8-0.1-3.7-0.2-5.5,0c-5.6,0.8-8.9-0.8-11.2-6.7c-1.5-3.7-6.1-7.4-10-8.7c-12.4-4.1-25.2-4.1-37.9-1c-2.4,0.6-4.7,1.9-6.6,3.3
		c-4,3-5,7.3-4.4,12c0.5,4.5,3.8,6.7,7.7,7.5c10.8,2.2,21.6,3.9,32.4,6c7.5,1.5,15.1,2.6,22.4,4.9c23.4,7.3,30.7,33.9,14.8,52.8
		c-5.2,6.2-11.8,10.4-19.4,12.7c-19.4,5.8-38.8,5.7-57.9-1.4c-14.4-5.4-23.2-15.7-25-31.4c-0.6-5.5,0.3-6.5,5.8-6.6c0.5,0,1,0,1.5,0
		c3.5,0.1,7.7-1,10.3,0.6c2.4,1.5,3,5.8,4.2,8.9c2.4,5.8,6.7,9.6,12.6,11.3c13.9,4.1,28,4.3,41.9,0.2c7.1-2.1,11.7-7,12.3-14.7
		c0.6-6.5-1.1-10.1-7.3-12c-7.6-2.3-15.5-3.8-23.3-5.2c-10-1.8-20.2-2.6-30-5.1c-15.9-4.1-23.7-13.3-24.3-27.2
		c-0.8-16,6.4-28.1,21.6-33.4C140.7,94.2,150.5,93.2,160.6,91.1z"/>
</g>
</svg>
