<?xml version="1.0" encoding="utf-8"?>
<!-- Generator: Adobe Illustrator 24.1.1, SVG Export Plug-In . SVG Version: 6.00 Build 0)  -->
<svg version="1.1" id="Calque_1" xmlns="http://www.w3.org/2000/svg" xmlns:xlink="http://www.w3.org/1999/xlink" x="0px" y="0px"
	 viewBox="0 0 199.9 173" style="enable-background:new 0 0 199.9 173;" xml:space="preserve">
<g>
	<path class="phaser" d="M196,54c0,0.7,0,1.3,0,2c-4.3,4-5.6,3.6-9.9-0.2c-1.5-1.3-5.2-1.5-7.2-0.7c-5.1,2.2-9.6,5.6-14.7,7.8
		c-4.3,1.8-9,2.6-14.6,4.1c4.5,1.9,8,4.4,11.5,4.4c3.1,0,4.9,0.8,6.7,2.9c-1.4-0.3-2.7-0.7-4.4-1.1c-2.2,11.2-4.3,22.2-6.4,33.4
		c3.3,0.7,6,1.2,9.3,1.9c0-7.7,0-14.9,0-22.5c1.5,1,2.4,1.6,2.3,1.5c-0.8,1.9-1.9,3.3-1.8,4.6c0.2,7.3,0.8,14.6,1.1,21.9
		c0.2,4.3,0,8.6,0,13.6c4-1.2,7-2.1,10.1-3.1c-1.2-8.1-2.2-15.6-3.4-23.5c2.2,1,3.6,1.7,5,2.4c4-9,3.1-14.4-3.4-20.6
		c-1.7-1.6-3.2-3.3-4.8-5c2.5,1.9,5.1,3.5,7.3,5.7c6.2,5.9,6,16.8,0,22.9c-1,1.1-1.5,3.2-1.3,4.7c0.5,4.9,1.4,9.7,2.2,15.1
		c-6.5,1.2-12.4,2.4-18.3,3.5c-0.6-4.5-1-7.7-1.6-11.9c-2.4,2-5,3.2-6,5.2c-15.6,31.6-52.7,46.2-85.4,33.1c-5.5-2.2-10-0.6-14.9,1.4
		c1.1,1.9,2,3.3,2.6,4.4c-4,1.9-7.5,3.6-11,5.3c0.3-3.1-0.6-3.6-3.6-2.4c-4.8,2-8.1-0.9-7.6-6.1c0.1-1.5,0-3,0-5.6
		c-4.5,5.5-4.9,8.8-2.4,12.1c3,3.9,6.7,4.6,11.9,2.3c0.6-0.3,1.2-0.3,1.8-0.4c-3.2,4.1-7.2,4.2-11.4,1.9c-4.4-2.3-6.3-6.5-4.8-10.8
		c1.6-4.7,3.4-9.3,5.2-14.2c1.6,0.7,3.4,1.4,5.9,2.5c0.4-3.7,0.7-7.1,1.2-11.3c-0.9-1.4-2.4-3.5-3.8-5.7c-0.1,0.5-0.2,1-0.2,1.5
		c-2.9,0.1-5.8,0.5-8.7,0.2c-3.1-0.4-6.3-1.1-9.1-2.3c-1.8-0.8-4.2-2.6-4.5-4.3c-1.6-9.1-2.8-18.3-3.8-27.5
		c-0.1-1.3,1.4-2.8,2.1-4.3c-2.5,11.9,0.4,23.1,4,35c5.5-2.9,9.1-8.5,14.1-5.3c-1.4-2.4-3.2-5.1-4.6-8c-1.6-3.3-2.8-6.8-3.9-9.6
		c2.1,1,5.2,2.4,8.3,3.9c0.1-0.2,0.2-0.4,0.3-0.6c-1.1-0.8-2.2-1.7-2.9-2.2c1.7-2,4.4-3.8,4.4-5.7c0.1-6.7-0.8-13.3-1.3-20.5
		c-2,1.4-3.5,2.4-5,3.4c-4.5,3.2-9.1,6.5-13.6,9.7c7.6-6.2,15.3-12.4,23.2-18.9c-1.3-2.6-2.8-5.7-4.4-8.8c-1.3,0.3-2.4,0.3-3.2,0.8
		c-2.1,1.3-4,2.7-6,4.1c1.1,1.6,2.4,3,3.2,4.7c0.5,1,0.2,2.3,0.2,3.5c-1.5-0.1-3.4,0.5-4.3-0.3c-2.6-2-4.9-4.6-7.8-7.4
		c3.5-4.2,7.2-8.6,11-13.1C17.3,56.5,8.9,56,5,47c0-2.7,0-5.3,0-8c3.4-9.7,7.2-19.3,5.2-29.9c3.2,1.8,6,3.6,9,4.9
		c3.2,1.3,6.6,2.1,10,3c4.3,1.2,8.7,2.1,12.9,3.8c6.9,2.7,10.1,8.3,8.4,15.5c-1.2,5.1-3.6,9.8-5.4,14.6c6.1,0.4,10.6-2.7,11.3-7.2
		c-1.9-2.8-4.4-5-4.2-6.8c0.7-7.3,6.9-9.8,12.2-12.7c0.4,1.9,0.7,3.8,1.1,5.7c-1.2-1.6-1.9-3.4-4.6-1.9c-4.8,2.7-7.2,6.3-5.7,11.8
		c3.8-3.7,7-6.9,10.3-10c0.9,0.5,1.7,1,2.6,1.5c1.4,0.4,2.8,0.9,4.2,1.3c0.2,0,0.4,0.1,0.5,0.2c0.1,0.1,0.2,0.4,0.2,0.4
		c-3,2.1-6,4.1-9.1,6.2c0.5,0.3,1.1,0.7,1.6,1c-0.9,2.3-1.6,4.7-2.8,6.8c-1.2,2.1-2.9,4-4.3,5.9c1.7,0.8,2.2,0.9,2.6,0.6
		c9.5-5.9,19.9-9,31.1-9.7c1-0.1,2.3-0.2,2.8-0.8c4.3-5.3,12.1-7.8,12.2-16.5c0-2.3,3.1-4.5,4.7-6.8c1.7,1.8,3.3,3.7,5,5.5
		c0.2,0.2,0.5,0.4,0.9,0.7c7.6-3.4,15.4-5.4,24.1-4.1c2,0.3,6.9-4.1,6.6-5.4c-1.2-4.6,1.3-6.8,3.8-9.5c2,0,4,0,6,0
		c1.9,2.6,4.9,5.4,2.3,8.7c-1.5,1.9-4.9,4.2-6.8,3.7c-4.4-1-6.2,1.3-8.1,3.3c2.6,3.4,5,6.5,7.5,9.8c1.1-0.4,2.7-1,4.2-1.5
		c1.7-0.5,3.7-0.6,5.3-1.4c1.6-0.8,3.2-1.9,4.1-3.4c2.5-3.8,7.1-5.3,10.8-3.1c3.2,2,4,4.8,1.9,8.1c-2.3,3.7-7.6,4.3-11.4,1.5
		c-0.9-0.7-1.8-1.6-2.8-1.7c-8.7-1.2-13.7,4-12.5,13.1c3.1,0,6.2-0.3,9.3,0.1c6.3,0.7,12.4,1.4,17,6.9c1.3,1.5,5.8,1.9,8,0.9
		C191,50,193.6,50.7,196,54z M91.4,117.5c-6.6-1.9-13.1-3.8-19.7-5.8c-0.5,0.7-1,1.3-1.5,2c2.8,5.1,5.7,10.3,8.6,15.4
		c0.3,0.6,1.2,1.3,1.8,1.3c5,0.1,8.6,3.5,9.6,7.2c1,3.8,2.9,3.5,5.1,3.6c1.7,0,3.5-0.8,6.5-1.5c-2,1.2-2.9,1.5-3.6,2.2
		c-1.1,1-2,2.3-3,3.4c1.3,0.8,2.6,1.6,3.9,2.5c0.9,0.7,1.7,1.5,2.6,2.3c3-2.1,6.1-4.6,10.2-1.8c0.3,0.2,1.1-0.1,1.7-0.3
		c5.1-1.8,11.1-12.4,10.3-17.7c-0.4-2.4-0.1-4.8-0.2-7.3c0-0.5-0.3-0.9-0.5-1.7c-1.4,0.6-2.7,1.1-3.2,1.3c-1.7-2.1-3-3.6-4.1-4.9
		c-1.6,2.6-2.7,4.1-3.5,5.8c-1.9,3.6-6.6,6.9-1,11.2c-7.6,5.3-12.3,3-18.2-9.2c4.7,1.5,8.9,2.8,13.9,4.3c-5-4.3-9.3-8-13.5-11.7
		c1.3,0.5,2.6,1,3.8,1.4c0.4-0.4,0.9-0.9,1.3-1.3c-1.7-2-3.1-4.6-5.2-6c-2.9-2-6.3-2.1-9.4,0.6C86.7,114.6,89,116.1,91.4,117.5z
		 M49.2,114.4c-1.1-5.9-2.2-11.7-3.3-17.6c0.5-0.1,1.1-0.3,1.6-0.4C49,103.3,46.3,112,55,116c2.9,3,6.2,4.5,10.3,2.9
		c-0.2-1.4,0.1-3.5-0.7-4.2c-6-4.7-4.8-10.6-3.2-16.7c0.5-1.9,0.1-3.9,0.1-5.9c0-6.9,0-13.9,0-21.2c1.5,0.5,2.2,0.8,3.7,1.4
		c-1.7-2.9-3-5.1-4.2-7.3C46,69.5,46,69.5,45.8,82c0,0.2-0.2,0.4-0.6,1c-0.4-3.6-0.7-6.8-1.2-10.7c-2.2,1.2-3.8,2.4-5.6,3.1
		c-4.4,1.7-5.8,4.8-5.2,9.3c1.1,8.4,1.9,16.8,2.7,25.3c0.4,3.8,1.7,6.6,5.6,7.9c4.1,1.5,7.5,6.7,13.8,2.4
		C53.1,118.1,51.1,116.2,49.2,114.4z M138.8,63.9c-13.1-1.9-25-3.7-38.3-5.7c0.8,9.4,1.6,17.5,2.3,25.5c0.4,0,0.9-0.1,1.3-0.1
		c-0.3-2.5-0.5-4.9-0.8-8.1c5.7,4.8,10.7,9,16.9,14.2c-7.3,0-13.2,0-19.7,0c0.6,7.7,1.1,14.7,1.6,21.8c4.7,0,8.7,0,13.3,0
		c-12.5-1.4-12.5-1.4-11.5-7.1c10.2,0,20.5,0,31.3,0c0.6-7.2,3.6-14.3-3.8-20.1c-3.8-3-6.7-7-10.8-11.3c5.6,1.2,10.1,2.1,14.6,3.1
		c-0.3,1.5-0.5,2.5-0.6,3.6c0.5,0.1,1,0.2,1.5,0.3C137,74.9,137.8,70,138.8,63.9z M77.6,111.7c0.6-0.2,1.1-0.5,1.7-0.7
		c-7.4-9.7,2.3-18.6,0.8-28.2c3.5,8.7,7.1,17.4,11.2,27.4c-0.5-3.3-0.7-5.2-1-7.2c0.8-0.3,1.4-0.6,2-0.8c8.7-2.8,9.4-3,6.9-12
		c-1.9-6.8-5.6-13.1-8.6-19.5c-4.9-10.5-4.9-10.5-16.2-8.4c-2.8,0.5-4.2,1.5-4.8,4.5c-2.6,12.7-5.5,25.3-8.3,38c-0.2,1,0,2.2,0,3.8
		c3.8-1.3,7.1-1.6,10,1.7c0.6,0.6,2.9-0.3,5.3-0.6C76.3,109.4,76.9,110.5,77.6,111.7z M138,56.4c7.6-7.9,7.7-18.7,8.8-29.2
		c-11-8.6-38.2,0-47.9,15.3c6.6,1.5,13.4,2.6,19.7,4.8C125.1,49.6,131,53,138,56.4z M157.3,94.1c5.9-10.1-4.6-9-8.1-13
		c3.4,1.2,6.8,2.5,10.4,3.8c0.7-3.9,1.4-7.3,2.1-11.3c-7.4-3-14.7-5.9-22.6-9.1c-0.8,11.8-1.3,22.5-2.3,33.3
		c-0.4,4.1,1.1,5.7,4.9,6.1c2.8,0.3,5.6,0.8,8.3,1.5c1.5,0.4,2.8,1.3,4.9,2.3c0.9-3.9,1.8-7.9,2.8-12.2c-3.6-1-6.4-1.8-9.2-2.7
		c0.1-0.3,0.2-0.6,0.3-0.9C151.7,92.7,154.6,93.4,157.3,94.1z M28.8,33.3c-3.7,0-7.1-0.6-10.2,0.2c-2.4,0.6-5.5,2.7-6.1,4.8
		c-0.6,2.1,0.9,5.8,2.7,7.2c5.1,4.2,11.3,6.2,18,5.7c4.1-0.3,7.7-2,9-6.4c1-3.2,1.9-6.5,2.6-9.9c1.2-5.5-0.8-9.4-5-10.5
		c-4.6-1.2-8.5,1.2-10.3,6.3C29.2,31.7,28.9,32.6,28.8,33.3z M99.3,80.8c0-6.1-0.1-11.1,0-16c0.1-2.3-0.3-5.4,1-6.7
		c1.3-1.3,4.4-0.7,6.5-0.9c-1.1-0.9-2.4-2-4.2-3.5c8.1-2.6,11.8,7.5,19.3,4.5c-2.5-1.2-5-2-6.9-3.4c-6.7-5.2-14.6-4.2-22.3-5.4
		c0,2.1,0,3.6,0,5.8c-6.4-6.3-15-7.3-23.6-3c-4.2,2.1-8.1,4.7-8,10.4c1.6-4.3,3.9-6,8.7-5c2.4,0.5,5.9,0.4,7.3-4
		c1.3-4,5.6-2.3,8.6-1.6c2.8,0.6,4,2.6,2.9,5.7c-0.5,1.3-0.8,3.2-0.2,4.4c2.2,4.9,4.6,9.6,7.1,14.3C96.3,77.9,97.6,79,99.3,80.8z
		 M14.2,14.2c-2.2,8.7-4.5,17-6.4,25.3c-1.6,6.8,1.8,10.4,9,9.8c-3.9-3.2-8.9-6.4-6.5-12.2c3.1-7.6,10.3-6.2,16.6-5.8
		c1.1-2.4,2-4.5,2.9-6.3C24.4,21.2,19.1,17.6,14.2,14.2z M74.3,139.7c1.1-3.1,3.3-6.1,2.8-8.6c-0.6-3.1-3.4-5.8-5.5-9.2
		c-2.1,1.5-3.7,2.7-5.3,3.9c1.1,1.4,2.1,2.7,3.2,4.2C67.5,135.2,69.1,138.2,74.3,139.7z M16.9,70.6c5.7-3,10.5-5.4,15.4-8
		c2.2,4.3,3.9,7.5,5.7,11.1c1.5-0.9,2.6-1.7,3.7-2.4c-3.9-4.5-7.6-8.8-11.4-13.2C24.8,60.6,19.5,63.1,16.9,70.6z M46.7,68.7
		c7.8-3,3.7-7.3,2.3-11.3c1-0.6,2-0.9,2.6-1.6c0.9-1,1.4-2.2,2.1-3.3c-1.2-0.2-2.5-0.7-3.7-0.5c-1.9,0.3-3.8,0.9-6.4,1.6
		C44.7,58.6,45.7,63.4,46.7,68.7z M35.4,145.9c-0.4,6.1-0.1,10.7,6.3,11.9c1.2-1.7,2.3-3.3,3.8-5.4
		C42.2,150.2,39.2,148.4,35.4,145.9z M164.4,56.5c2.1-1.8,3.6-3.1,5-4.4c-1.6-1.3-3.3-3.7-4.9-3.7c-1.7,0-3.3,2.3-5,3.6
		C160.9,53.3,162.4,54.6,164.4,56.5z M47.1,153.1c2.7,1,4.8,2.3,6.8,2.3c1.2,0,3.5-3.1,3.2-3.4c-1.3-2-3.2-3.6-5.1-5.5
		C50.3,148.6,49.2,150.2,47.1,153.1z M46.3,141.5c-2,1.7-3.8,3.4-6,5.3c2.6,1.9,4.3,3.1,6.2,4.4c1.5-2,2.9-3.8,4.3-5.7
		C49.3,144.1,48,143,46.3,141.5z M148.7,49.6c-1.4,1.9-2.3,3.1-3.2,4.4c1.4,0.9,2.9,2.6,4.3,2.5c1.7-0.2,3.2-1.8,4.8-2.8
		C152.9,52.5,151.2,51.3,148.7,49.6z M158.6,14.3c0.7-4.4-1.2-5.6-4.4-5.2c-3.5,0.4-4.7,2.5-3.6,6.3C153.4,15,155.9,14.7,158.6,14.3
		z M168.3,29.5c3.9,0.5,7.6,1.1,9.4-3.3C172.8,22.7,169.5,23.8,168.3,29.5z M60.2,130.9c0.3,0.7,0.5,1.3,0.8,2
		c1.9-0.5,3.9-1,5.8-1.5c-0.6-0.9-1.4-2.7-1.7-2.7C63.3,129.2,61.8,130.1,60.2,130.9z"/>
	<path class="phaser" d="M68,31.2c-0.8-2.4-1.6-4.8-2.3-7.1c4.6-2.4,10.1-1.5,12.2-6.9c0.3-0.7,2.5-1.2,3.4-0.8c1,0.4,2.1,1.9,2.1,2.9
		c0,1-1.3,3-2,3c-4.7,0-4.6,3.7-5.8,6.6c-0.6,1.4-2.2,2.5-3.4,3.7C70.8,32.1,69.4,31.6,68,31.2z"/>
	<path class="phaser" d="M127.2,41.9c-1.5-1.9-2.8-3.4-3.8-5.1c-0.2-0.3,1.1-2,1.7-2c2.6,0,5.1,0.3,7.7,0.6c0.1,0,0.3,2.4-0.3,3
		C131.3,39.6,129.6,40.3,127.2,41.9z"/>
	<path class="phaser" d="M124.8,43.7c12.5,1.1,18.6-4.4,14.5-13.4c3.5,3.1,3.7,7,0.6,10.8C135.9,46.2,129.9,47.2,124.8,43.7z"/>
</g>
</svg>
