<?xml version="1.0" encoding="utf-8"?>
<!-- Generator: Adobe Illustrator 24.1.1, SVG Export Plug-In . SVG Version: 6.00 Build 0)  -->
<svg version="1.1" id="Calque_1" xmlns="http://www.w3.org/2000/svg" xmlns:xlink="http://www.w3.org/1999/xlink" x="0px" y="0px"
	 viewBox="0 0 2194 2014" style="enable-background:new 0 0 2194 2014;" xml:space="preserve">
<g>
	<path class="react" d="M2194,1010.6c0-145.3-182-283.1-461.1-368.5c64.4-284.4,35.8-510.7-90.3-583.2c-29.1-17-63.1-25-100.2-25v99.7
		c20.6,0,37.1,4,51,11.6c60.8,34.9,87.2,167.7,66.6,338.5c-4.9,42-13,86.3-22.8,131.5c-87.7-21.5-183.4-38-284-48.7
		c-60.4-82.7-123-157.9-186-223.6c145.8-135.5,282.6-209.7,375.7-209.7V33.5c-123,0-284,87.7-446.8,239.7
		C933.3,122,772.3,35.2,649.3,35.2V135c92.6,0,229.9,73.8,375.7,208.4c-62.6,65.7-125.2,140.4-184.7,223.2
		c-101.1,10.7-196.8,27.3-284.4,49.2C545.6,571,538,527.6,532.6,486c-21-170.8,4.9-303.7,65.3-339c13.4-8,30.9-11.6,51.4-11.6V35.7
		c-37.6,0-71.6,8-101.1,25c-125.7,72.4-153.8,298.3-89,581.8C181.1,728.4,0,865.7,0,1010.6c0,145.3,182,283.1,461.1,368.5
		c-64.4,284.4-35.8,510.7,90.3,583.2c29.1,17,63.1,25,100.6,25c123,0,284-87.7,446.8-239.7c162.8,151.2,323.8,237.9,446.8,237.9
		c37.6,0,71.6-8,101.1-25c125.7-72.4,153.8-298.3,89-581.8C2012.9,1293.2,2194,1155.5,2194,1010.6L2194,1010.6z M1611.7,712.3
		c-16.5,57.7-37.1,117.2-60.4,176.6c-18.3-35.8-37.6-71.6-58.6-107.3c-20.6-35.8-42.5-70.7-64.4-104.6
		C1491.9,686.4,1553.2,698,1611.7,712.3L1611.7,712.3z M1406.9,1188.6c-34.9,60.4-70.7,117.6-107.8,170.8
		c-66.6,5.8-134.2,8.9-202.1,8.9c-67.5,0-135.1-3.1-201.2-8.5c-37.1-53.2-73.3-110-108.2-169.9c-34-58.6-64.8-118.1-93-178
		c27.7-59.9,59-119.9,92.6-178.4c34.9-60.4,70.7-117.6,107.8-170.8c66.6-5.8,134.2-8.9,202.1-8.9c67.5,0,135.1,3.1,201.2,8.5
		c37.1,53.2,73.3,110,108.2,169.9c34,58.6,64.8,118.1,93,178C1471.3,1070.1,1440.5,1130,1406.9,1188.6L1406.9,1188.6z
		 M1551.4,1130.5c24.1,59.9,44.7,119.9,61.7,178c-58.6,14.3-120.3,26.4-184.2,35.8c21.9-34.4,43.8-69.8,64.4-106
		C1513.8,1202.5,1533,1166.2,1551.4,1130.5L1551.4,1130.5z M1097.9,1607.6c-41.6-42.9-83.2-90.8-124.3-143.1
		c40.2,1.8,81.4,3.1,123,3.1c42,0,83.6-0.9,124.3-3.1C1180.6,1516.8,1139,1564.7,1097.9,1607.6z M765.2,1344.2
		c-63.5-9.4-124.8-21-183.4-35.3c16.5-57.7,37.1-117.2,60.4-176.6c18.3,35.8,37.6,71.6,58.6,107.3S743.3,1310.2,765.2,1344.2z
		 M1095.7,413.6c41.6,42.9,83.2,90.8,124.3,143.1c-40.2-1.8-81.4-3.1-123-3.1c-42,0-83.6,0.9-124.3,3.1
		C1012.9,504.4,1054.5,456.5,1095.7,413.6z M764.7,677c-21.9,34.4-43.8,69.8-64.4,106c-20.6,35.8-39.8,71.6-58.1,107.3
		c-24.1-59.9-44.7-119.9-61.7-178C639.1,698.5,700.8,686.4,764.7,677L764.7,677z M360,1236.9c-158.3-67.5-260.7-156.1-260.7-226.3
		S201.7,851.4,360,784.3c38.5-16.5,80.5-31.3,123.9-45.2c25.5,87.7,59,178.9,100.6,272.3c-41.1,93-74.2,183.8-99.3,271
		C440.9,1268.6,398.9,1253.4,360,1236.9L360,1236.9z M600.6,1876c-60.8-34.9-87.2-167.7-66.6-338.5c4.9-42,13-86.3,22.8-131.5
		c87.7,21.5,183.4,38,284,48.7c60.4,82.7,123,157.9,186,223.6C881,1813.8,744.2,1888,651.1,1888C631,1887.6,614,1883.6,600.6,1876
		L600.6,1876z M1661.4,1535.2c21,170.8-4.9,303.7-65.3,339c-13.4,8-30.9,11.6-51.4,11.6c-92.6,0-229.9-73.8-375.7-208.4
		c62.6-65.7,125.2-140.4,184.7-223.2c101.1-10.7,196.8-27.3,284.4-49.2C1648.4,1450.2,1656.5,1493.6,1661.4,1535.2z M1833.6,1236.9
		c-38.5,16.5-80.5,31.3-123.9,45.2c-25.5-87.7-59-178.9-100.6-272.3c41.1-93,74.2-183.8,99.3-271c44.3,13.9,86.3,29.1,125.7,45.6
		c158.3,67.5,260.7,156.1,260.7,226.3C2094.3,1080.8,1991.9,1169.8,1833.6,1236.9L1833.6,1236.9z"/>
	<circle class="react" cx="1096.6" cy="1010.6" r="204.4"/>
</g>
</svg>
